HIERARCHY
ROOT joint_Root
{
	OFFSET 0.0 0.0 0.0
	CHANNELS 6 Xposition Yposition Zposition Zrotation Xrotation Yrotation 
	JOINT Hips
	{
		OFFSET 4.5925 91.4895 -427.239
		CHANNELS 6 Xposition Yposition Zposition Zrotation Xrotation Yrotation 
		JOINT Spine
		{
			OFFSET 15.7357 0.0 0.0
			CHANNELS 6 Xposition Yposition Zposition Zrotation Xrotation Yrotation 
			JOINT Chest
			{
				OFFSET 8.98455 -0.406207 0.0
				CHANNELS 6 Xposition Yposition Zposition Zrotation Xrotation Yrotation 
				JOINT Neck
				{
					OFFSET 16.3773 0.0 0.0
					CHANNELS 6 Xposition Yposition Zposition Zrotation Xrotation Yrotation 
					JOINT Head
					{
						OFFSET 6.45672 0.0 0.0
						CHANNELS 6 Xposition Yposition Zposition Zrotation Xrotation Yrotation 
						End Site
						{
							OFFSET 0.0 0.0 0.0
						}
					}
				}
				JOINT Shoulder_L
				{
					OFFSET 12.9942 -0.242716 4.98039
					CHANNELS 6 Xposition Yposition Zposition Zrotation Xrotation Yrotation 
					JOINT UpperArm_L
					{
						OFFSET 5.34809 0.0 0.0
						CHANNELS 6 Xposition Yposition Zposition Zrotation Xrotation Yrotation 
						JOINT LowerArm_L
						{
							OFFSET 24.3286 1.87007e-05 0.0
							CHANNELS 6 Xposition Yposition Zposition Zrotation Xrotation Yrotation 
							JOINT Hand_L
							{
								OFFSET 22.2916 0.0 0.0
								CHANNELS 6 Xposition Yposition Zposition Zrotation Xrotation Yrotation 
								End Site
								{
									OFFSET 0.0 0.0 0.0
								}
							}
						}
					}
				}
				JOINT Shoulder_R
				{
					OFFSET 12.9945 -0.242716 -4.98039
					CHANNELS 6 Xposition Yposition Zposition Zrotation Xrotation Yrotation 
					JOINT UpperArm_R
					{
						OFFSET -5.34813 0.0 0.0
						CHANNELS 6 Xposition Yposition Zposition Zrotation Xrotation Yrotation 
						JOINT LowerArm_R
						{
							OFFSET -24.3289 0.000322201 0.0
							CHANNELS 6 Xposition Yposition Zposition Zrotation Xrotation Yrotation 
							JOINT Hand_R
							{
								OFFSET -22.2915 -0.000108084 0.0
								CHANNELS 6 Xposition Yposition Zposition Zrotation Xrotation Yrotation 
								End Site
								{
									OFFSET 0.0 0.0 0.0
								}
							}
						}
					}
				}
			}
		}
		JOINT UpperLeg_L
		{
			OFFSET -2.19248 -6.46944 0.0
			CHANNELS 6 Xposition Yposition Zposition Zrotation Xrotation Yrotation 
			JOINT LowerLeg_L
			{
				OFFSET 39.0811 0.0 -1.23785e-05
				CHANNELS 6 Xposition Yposition Zposition Zrotation Xrotation Yrotation 
				JOINT Foot_L
				{
					OFFSET 40.9854 0.0 -1.26872e-05
					CHANNELS 6 Xposition Yposition Zposition Zrotation Xrotation Yrotation 
					JOINT Toes_L
					{
						OFFSET 11.7543 0.0 0.0
						CHANNELS 6 Xposition Yposition Zposition Zrotation Xrotation Yrotation 
						End Site
						{
							OFFSET 0.0 0.0 0.0
						}
					}
				}
			}
		}
		JOINT UpperLeg_R
		{
			OFFSET -2.19251 6.46944 0.0
			CHANNELS 6 Xposition Yposition Zposition Zrotation Xrotation Yrotation 
			JOINT LowerLeg_R
			{
				OFFSET -39.0811 -0.00228153 -0.0401928
				CHANNELS 6 Xposition Yposition Zposition Zrotation Xrotation Yrotation 
				JOINT Foot_R
				{
					OFFSET -40.9854 0.0 0.0
					CHANNELS 6 Xposition Yposition Zposition Zrotation Xrotation Yrotation 
					JOINT Toes_R
					{
						OFFSET -11.7543 0.0 0.0
						CHANNELS 6 Xposition Yposition Zposition Zrotation Xrotation Yrotation 
						End Site
						{
							OFFSET 0.0 0.0 0.0
						}
					}
				}
			}
		}
	}
}
MOTION
Frames:	9
Frame Time:	0.0333333
0.000000 0.000000 0.000000 0.000000 0.000000 -0.000000 -3.667640 90.840800 -4.168920 88.511100 -1.470710 12.047800 15.735700 0.000005 -0.000001 89.275200 76.040100 -87.403700 8.984550 -0.406207 -0.000000 20.156800 -0.143833 3.780450 16.377300 -0.000001 -0.000001 7.512200 -2.184340 3.570820 6.456720 -0.000001 -0.000000 -11.151000 -2.436300 8.944590 12.994200 -0.242716 4.980390 -90.618900 2.403740 -75.556700 5.348090 -0.000007 -0.000001 -60.516000 -18.617100 -77.396300 24.328600 0.000019 0.000005 44.403200 -13.102400 -103.033000 22.291600 -0.000001 0.000005 30.393400 5.101530 5.078310 12.994500 -0.242716 -4.980390 88.902400 10.821000 -84.173400 -5.348130 -0.000001 -0.000004 -52.896900 34.283500 -25.790300 -24.328900 0.000322 -0.000009 2.432480 5.863120 -22.588900 -22.291500 -0.000108 -0.000004 16.429200 5.402770 -3.027620 -2.192480 -6.469440 -0.000000 -171.424000 -12.860500 -2.046910 39.081100 -0.000007 -0.000012 -0.139999 0.225165 31.872100 40.985400 -0.000006 -0.000013 -0.580851 8.988530 -67.179800 11.754300 -0.000000 0.000003 -0.000177 -0.001668 -16.640700 -2.192510 6.469440 -0.000001 176.504000 23.845700 -179.770000 -39.081100 -0.002282 -0.040193 -0.170104 0.293279 30.594300 -40.985400 0.000008 0.000006 6.688200 16.035800 -69.162900 -11.754300 -0.000006 -0.000006 -0.002619 -0.036208 -18.045500
0.000000 0.000000 0.000000 0.000000 0.000000 -0.000000 -3.667630 90.857600 -4.142830 88.534600 -1.654660 11.970700 15.735700 0.000005 -0.000001 89.345300 76.055100 -87.465600 8.984550 -0.406207 -0.000000 20.126600 -0.109716 3.790930 16.377300 -0.000001 -0.000001 7.492490 -2.219250 3.598420 6.456720 -0.000001 -0.000000 -11.130300 -2.456050 8.948630 12.994200 -0.242716 4.980390 -90.634900 2.462370 -75.536600 5.348090 -0.000007 -0.000001 -63.384400 -19.477900 -77.573900 24.328600 0.000019 0.000005 44.206300 -12.977800 -103.001000 22.291600 -0.000001 0.000005 30.390200 5.087870 5.390090 12.994500 -0.242716 -4.980390 88.892300 10.847900 -84.134100 -5.348130 -0.000001 -0.000004 -52.911600 34.165500 -25.647700 -24.328900 0.000322 -0.000009 2.423100 5.861620 -22.515700 -22.291500 -0.000108 -0.000004 16.424600 5.402560 -3.020770 -2.192480 -6.469440 -0.000000 -171.428000 -12.966700 -2.006530 39.081100 -0.000007 -0.000012 -0.143202 0.231304 31.762300 40.985400 -0.000006 -0.000013 -0.619100 8.906010 -67.164000 11.754300 -0.000000 0.000003 -0.000172 -0.001632 -16.639400 -2.192510 6.469440 -0.000001 176.518000 23.804500 -179.809000 -39.081100 -0.002282 -0.040193 -0.167967 0.290525 30.520000 -40.985400 0.000008 0.000006 6.721020 16.177800 -69.145400 -11.754300 -0.000006 -0.000006 -0.002685 -0.036986 -18.077200
0.000000 0.000000 0.000000 0.000000 0.000000 -0.000000 -3.675810 90.865500 -4.107500 88.522300 -1.841010 11.905900 15.735700 0.000005 -0.000001 89.405300 76.055000 -87.507300 8.984550 -0.406207 -0.000000 20.126700 -0.079209 3.822090 16.377300 -0.000001 -0.000001 7.499030 -2.224960 3.614190 6.456720 -0.000001 -0.000000 -11.124800 -2.507920 9.018920 12.994200 -0.242716 4.980390 -90.656200 2.532580 -75.468900 5.348090 -0.000007 -0.000001 -66.657000 -20.481500 -77.751300 24.328600 0.000019 0.000005 43.977600 -12.799400 -102.930000 22.291600 -0.000001 0.000005 30.420400 5.077260 5.629990 12.994500 -0.242716 -4.980390 88.888200 10.845100 -84.110900 -5.348130 -0.000001 -0.000004 -52.913900 34.059300 -25.540100 -24.328900 0.000322 -0.000009 2.433320 5.905080 -22.451900 -22.291500 -0.000108 -0.000004 16.394000 5.402130 -3.006930 -2.192480 -6.469440 -0.000000 -171.405000 -13.036500 -1.990760 39.081100 -0.000007 -0.000012 -0.142433 0.230439 31.720200 40.985400 -0.000006 -0.000013 -0.660665 8.789490 -67.180900 11.754300 -0.000000 0.000003 -0.000177 -0.001670 -16.640800 -2.192510 6.469440 -0.000001 176.573000 23.756000 -179.845000 -39.081100 -0.002282 -0.040193 -0.165188 0.286401 30.468400 -40.985400 0.000008 0.000006 6.753960 16.283700 -69.140100 -11.754300 -0.000006 -0.000006 -0.002489 -0.034684 -17.983500
0.000000 0.000000 0.000000 0.000000 0.000000 -0.000000 -3.684390 90.869800 -4.081080 88.504800 -1.969850 11.836200 15.735700 0.000005 -0.000001 89.490800 76.069300 -87.583400 8.984550 -0.406207 -0.000000 20.097800 -0.037786 3.833550 16.377300 -0.000001 -0.000001 7.456160 -2.278910 3.742520 6.456720 -0.000001 -0.000000 -10.939100 -2.502860 9.058030 12.994200 -0.242716 4.980390 -90.673600 2.591670 -75.426300 5.348090 -0.000007 -0.000001 -69.977800 -21.575700 -77.931700 24.328600 0.000019 0.000005 43.396900 -12.469100 -102.863000 22.291600 -0.000001 0.000005 30.613200 5.069140 5.812150 12.994500 -0.242716 -4.980390 88.879600 10.858900 -84.073300 -5.348130 -0.000001 -0.000004 -52.864200 34.045700 -25.412100 -24.328900 0.000322 -0.000009 2.434510 5.930780 -22.374400 -22.291500 -0.000108 -0.000004 16.380900 5.401880 -2.998710 -2.192480 -6.469440 -0.000000 -171.366000 -13.114600 -2.003400 39.081100 -0.000007 -0.000012 -0.143890 0.233000 31.697800 40.985400 -0.000006 -0.000013 -0.693081 8.735200 -67.196000 11.754300 -0.000000 0.000003 -0.000182 -0.001709 -16.642200 -2.192510 6.469440 -0.000001 176.640000 23.688800 -179.897000 -39.081100 -0.002282 -0.040193 -0.163995 0.284769 30.433600 -40.985400 0.000008 0.000006 6.779400 16.355700 -69.141000 -11.754300 -0.000006 -0.000006 -0.002588 -0.035849 -18.030900
0.000000 0.000000 0.000000 0.000000 0.000000 -0.000000 -3.701360 90.870200 -4.029330 88.505100 -2.061730 11.788200 15.735700 0.000005 -0.000001 89.506200 76.066700 -87.585900 8.984550 -0.406207 -0.000000 20.103100 -0.029043 3.857920 16.377300 -0.000001 -0.000001 7.452830 -2.310670 3.815270 6.456720 -0.000001 -0.000000 -10.902900 -2.546010 9.060820 12.994200 -0.242716 4.980390 -90.727100 2.786410 -75.369800 5.348090 -0.000007 -0.000001 -72.886100 -22.891800 -78.032000 24.328600 0.000019 0.000005 42.918200 -12.064200 -102.668000 22.291600 -0.000001 0.000005 31.009300 5.053710 6.155110 12.994500 -0.242716 -4.980390 88.871300 10.880400 -84.041100 -5.348130 -0.000001 -0.000004 -52.762400 34.025700 -25.308800 -24.328900 0.000322 -0.000009 2.421110 5.912020 -22.326700 -22.291500 -0.000108 -0.000004 16.397900 5.400270 -2.946410 -2.192480 -6.469440 -0.000000 -171.352000 -13.108900 -1.973700 39.081100 -0.000007 -0.000012 -0.147548 0.239124 31.676300 40.985400 -0.000006 -0.000013 -0.726330 8.684890 -67.242900 11.754300 -0.000000 0.000003 -0.000168 -0.001600 -16.638200 -2.192510 6.469440 -0.000001 176.666000 23.620500 -179.913000 -39.081100 -0.002282 -0.040193 -0.167118 0.290208 30.423000 -40.985400 0.000008 0.000006 6.786380 16.375200 -69.169900 -11.754300 -0.000006 -0.000006 -0.002554 -0.035448 -18.014600
0.000000 0.000000 0.000000 0.000000 0.000000 -0.000000 -3.720130 90.872700 -3.987790 88.525100 -2.114550 11.760200 15.735700 0.000005 -0.000001 89.483200 76.059500 -87.557200 8.984550 -0.406207 -0.000000 20.117400 -0.039224 3.871270 16.377300 -0.000001 -0.000001 7.359090 -2.340710 3.837640 6.456720 -0.000001 -0.000000 -10.881700 -2.527520 9.078230 12.994200 -0.242716 4.980390 -90.767700 2.938710 -75.353400 5.348090 -0.000007 -0.000001 -75.350600 -24.525200 -77.829600 24.328600 0.000019 0.000005 42.699900 -11.724500 -102.419000 22.291600 -0.000001 0.000005 31.215500 5.048040 6.280100 12.994500 -0.242716 -4.980390 88.863500 10.889600 -84.005200 -5.348130 -0.000001 -0.000004 -52.777600 33.889000 -25.184700 -24.328900 0.000322 -0.000009 2.409610 5.924420 -22.189100 -22.291500 -0.000108 -0.000004 16.364700 5.399910 -2.934500 -2.192480 -6.469440 -0.000000 -171.348000 -13.185200 -1.954430 39.081100 -0.000007 -0.000012 -0.144448 0.234402 31.643400 40.985400 -0.000006 -0.000013 -0.738603 8.692990 -67.244300 11.754300 -0.000000 0.000003 -0.000183 -0.001719 -16.642600 -2.192510 6.469440 -0.000001 176.680000 23.530500 -179.913000 -39.081100 -0.002282 -0.040193 -0.168201 0.292193 30.410900 -40.985400 0.000008 0.000006 6.784530 16.344900 -69.193600 -11.754300 -0.000006 -0.000006 -0.002512 -0.034949 -17.994300
0.000000 0.000000 0.000000 0.000000 0.000000 -0.000000 -3.746540 90.869300 -3.930960 88.541100 -2.166720 11.725800 15.735700 0.000005 -0.000001 89.547100 76.060000 -87.609400 8.984550 -0.406207 -0.000000 20.116200 -0.007617 3.888980 16.377300 -0.000001 -0.000001 7.269010 -2.368420 3.916440 6.456720 -0.000001 -0.000000 -10.897300 -2.511470 9.007130 12.994200 -0.242716 4.980390 -90.787500 3.031390 -75.431000 5.348090 -0.000007 -0.000001 -77.190600 -26.411100 -77.290400 24.328600 0.000019 0.000005 42.917800 -11.423500 -102.025000 22.291600 -0.000001 0.000005 31.474200 5.042940 6.392180 12.994500 -0.242716 -4.980390 88.850700 10.901900 -83.944800 -5.348130 -0.000001 -0.000004 -52.730000 33.811200 -25.077700 -24.328900 0.000322 -0.000009 2.406030 5.954630 -22.058100 -22.291500 -0.000108 -0.000004 16.372600 5.398900 -2.901590 -2.192480 -6.469440 -0.000000 -171.320000 -13.227300 -1.912610 39.081100 -0.000007 -0.000012 -0.148721 0.241508 31.625100 40.985400 -0.000006 -0.000013 -0.764736 8.719580 -67.288400 11.754300 -0.000000 0.000003 -0.000168 -0.001598 -16.638100 -2.192510 6.469440 -0.000001 176.710000 23.445500 -179.932000 -39.081100 -0.002282 -0.040193 -0.167525 0.290861 30.426400 -40.985400 0.000008 0.000006 6.792550 16.297000 -69.235300 -11.754300 -0.000006 -0.000006 -0.002485 -0.034628 -17.981200
0.000000 0.000000 0.000000 0.000000 0.000000 -0.000000 -3.775460 90.873300 -3.893770 88.551900 -2.172650 11.655000 15.735700 0.000005 -0.000001 89.610400 76.085100 -87.656200 8.984550 -0.406207 -0.000000 20.065700 0.023732 3.916460 16.377300 -0.000001 -0.000001 7.191410 -2.402260 3.941740 6.456720 -0.000001 -0.000000 -10.898000 -2.566080 9.027970 12.994200 -0.242716 4.980390 -90.814300 3.140920 -75.457600 5.348090 -0.000007 -0.000001 -78.479400 -28.304200 -76.505100 24.328600 0.000019 0.000005 43.021900 -10.950200 -101.505000 22.291600 -0.000001 0.000005 31.672100 5.045380 6.338550 12.994500 -0.242716 -4.980390 88.837500 10.923700 -83.887800 -5.348130 -0.000001 -0.000004 -52.671200 33.748900 -24.912600 -24.328900 0.000322 -0.000009 2.394500 5.947110 -21.987400 -22.291500 -0.000108 -0.000004 16.345400 5.399210 -2.912020 -2.192480 -6.469440 -0.000000 -171.323000 -13.287200 -1.948940 39.081100 -0.000007 -0.000012 -0.144436 0.234837 31.593700 40.985400 -0.000006 -0.000013 -0.778733 8.722480 -67.282900 11.754300 -0.000000 0.000003 -0.000176 -0.001664 -16.640500 -2.192510 6.469440 -0.000001 176.738000 23.415500 -179.966000 -39.081100 -0.002282 -0.040193 -0.169350 0.294259 30.401700 -40.985400 0.000008 0.000006 6.797630 16.285600 -69.257400 -11.754300 -0.000006 -0.000006 -0.002452 -0.034237 -17.965400
0.000000 0.000000 0.000000 0.000000 0.000000 -0.000000 -3.800270 90.879900 -3.851050 88.574900 -2.178640 11.552100 15.735700 0.000005 -0.000001 89.763100 76.115200 -87.793700 8.984550 -0.406207 -0.000000 20.004600 0.097069 3.933900 16.377300 -0.000001 -0.000001 7.096870 -2.475800 4.025170 6.456720 -0.000001 -0.000000 -10.939300 -2.643060 9.002520 12.994200 -0.242716 4.980390 -90.833000 3.218180 -75.479600 5.348090 -0.000007 -0.000001 -79.553800 -30.129800 -75.683100 24.328600 0.000019 0.000005 43.299500 -10.432800 -100.878000 22.291600 -0.000001 0.000005 31.567100 5.033040 6.608630 12.994500 -0.242716 -4.980390 88.825900 10.911600 -83.820900 -5.348130 -0.000001 -0.000004 -52.657700 33.641000 -24.766300 -24.328900 0.000322 -0.000009 2.408200 6.013920 -21.879700 -22.291500 -0.000108 -0.000004 16.320600 5.401640 -2.990720 -2.192480 -6.469440 -0.000000 -171.343000 -13.283800 -1.994490 39.081100 -0.000007 -0.000012 -0.151195 0.246438 31.530200 40.985400 -0.000006 -0.000013 -0.815531 8.700030 -67.272300 11.754300 -0.000000 0.000003 -0.000175 -0.001651 -16.640100 -2.192510 6.469440 -0.000001 176.793000 23.345800 179.956000 -39.081100 -0.002282 -0.040193 -0.166626 0.289967 30.371400 -40.985400 0.000008 0.000006 6.785240 16.200000 -69.265200 -11.754300 -0.000006 -0.000006 -0.002557 -0.035481 -18.015900
